<?xml version="1.0" encoding="utf-8"?>
<!-- Generator: Adobe Illustrator 16.0.0, SVG Export Plug-In . SVG Version: 6.00 Build 0)  -->
<!DOCTYPE svg PUBLIC "-//W3C//DTD SVG 1.1//EN" "http://www.w3.org/Graphics/SVG/1.1/DTD/svg11.dtd">
<svg version="1.1" id="레이어_1" xmlns="http://www.w3.org/2000/svg" xmlns:xlink="http://www.w3.org/1999/xlink" x="0px"
	 y="0px" width="612px" height="792px" viewBox="0 0 612 792" enable-background="new 0 0 612 792" xml:space="preserve">
<g>
	<circle fill="#FFFFFF" cx="306" cy="396" r="257.04"/>
	<path fill="#1A4876" d="M306,138.96c-37.332,0-72.828,7.956-104.856,22.236l124.644,78.132L191.964,324.6L170.34,177.72
		C97.512,223.008,48.96,303.792,48.96,396c0,89.352,45.492,167.892,114.648,213.996l52.632-54.264
		c73.032-45.696-15.3-152.186-15.3-152.186c164.22,48.756,200.736-130.764,200.736-130.764c57.732,6.12,88.128,60.792,88.128,60.792
		c-9.18,3.06-21.216-6.12-21.216-6.12c9.18,12.24,12.24,66.912,12.24,66.912c51.611,85.271,15.3,79.15,15.3,79.15
		s-15.3,0-24.276,6.12c-2.65,1.836,15.302,12.24,9.182,21.216c-7.142,10.608-1.43,14.28,0,18.156
		c3.06,9.182-4.08,6.938-3.266,11.628c3.062,15.3,0.204,27.948,0.204,27.948c-12.238,33.456-36.516,30.396-36.516,30.396
		s-27.336-3.062-42.636,0c-9.792,2.039-4.488,28.15,0.61,46.308c95.678-37.33,163.609-130.559,163.609-239.494
		C563.04,254.016,447.984,138.96,306,138.96z M187.68,332.76l146.268-93.024c3.468-2.244,8.16-1.224,10.402,2.244
		c2.244,3.468,1.226,8.16-2.242,10.404L195.84,345.612c-3.468,2.244-8.16,1.224-10.404-2.244
		C183.192,339.696,184.212,335.004,187.68,332.76z M328.644,296.652c0,0-23.664,60.996-81.6,52.632c0,0-6.12-6.12-0.204-12.24
		c0,0,48.756,8.568,69.564-46.308C316.404,290.736,325.38,287.676,328.644,296.652z M173.604,388.452
		c-3.06-6.12,3.06-9.18,3.06-9.18C371.28,443.124,386.58,239.328,386.58,239.328c6.12-6.12,12.24,0,12.24,0
		C365.364,470.46,173.604,388.452,173.604,388.452z"/>
</g>
</svg>
