<?xml version="1.0" encoding="utf-8"?>
<!-- Generator: Adobe Illustrator 16.0.0, SVG Export Plug-In . SVG Version: 6.00 Build 0)  -->
<!DOCTYPE svg PUBLIC "-//W3C//DTD SVG 1.1//EN" "http://www.w3.org/Graphics/SVG/1.1/DTD/svg11.dtd">
<svg version="1.1" id="레이어_1" xmlns="http://www.w3.org/2000/svg" xmlns:xlink="http://www.w3.org/1999/xlink" x="0px"
	 y="0px" width="900px" height="300px" viewBox="0 0 900 300" enable-background="new 0 0 900 300" xml:space="preserve">
<g>
	<circle fill="#FFFFFF" cx="727.049" cy="150" r="124.253"/>
	<g>
		<path stroke="#000000" stroke-miterlimit="10" d="M62.691,113.513l25.64-76.031h15.778L70.876,131.46
			c-0.295,0.887-0.789,1.578-1.282,2.071c-0.493,0.592-1.282,0.789-2.169,0.789h-9.467c-0.986,0-1.677-0.296-2.268-0.789
			c-0.592-0.592-0.986-1.282-1.183-2.071L21.274,37.482h15.778L62.691,113.513z"/>
	</g>
	<path d="M448.96,68.15"/>
	<g>
		<path d="M129.255,65.094c5.423,0,10.255,1.084,14.299,3.156c4.043,2.07,7.396,4.832,10.059,8.184
			c2.663,3.355,4.635,7.101,5.917,11.439c1.282,4.241,1.972,8.579,1.972,12.918c0,4.438-0.69,8.778-1.972,13.117
			c-1.282,4.24-3.353,8.085-5.917,11.437c-2.663,3.354-6.015,6.016-10.059,8.087c-4.043,2.072-8.777,3.057-14.299,3.057
			c-5.522,0-10.354-0.985-14.398-3.057c-4.043-2.071-7.396-4.733-10.059-8.087c-2.662-3.352-4.634-7.099-5.817-11.437
			c-1.283-4.242-1.874-8.679-1.874-13.117c0-4.339,0.591-8.678,1.874-12.918c1.281-4.24,3.155-8.085,5.817-11.439
			c2.663-3.352,6.016-6.015,10.059-8.184C118.802,66.08,123.635,65.094,129.255,65.094z M146.809,100.692
			c0-2.858-0.296-5.818-0.986-8.677c-0.69-2.859-1.775-5.423-3.254-7.791c-1.479-2.268-3.254-4.043-5.423-5.522
			c-2.17-1.479-4.832-2.169-7.889-2.169c-3.156,0-5.818,0.69-8.086,2.169c-2.268,1.479-4.043,3.254-5.424,5.522
			c-1.479,2.268-2.465,4.931-3.155,7.791c-0.592,2.859-0.986,5.72-0.986,8.677c0,2.96,0.296,5.917,0.986,8.778
			c0.592,2.861,1.676,5.424,3.155,7.594c1.381,2.267,3.156,4.141,5.424,5.521c2.268,1.381,4.931,2.072,8.086,2.072
			c3.057,0,5.719-0.691,7.889-2.072c2.169-1.38,4.043-3.254,5.423-5.521c1.479-2.269,2.564-4.733,3.254-7.594
			C146.414,106.609,146.809,103.652,146.809,100.692z"/>
		<path d="M187.042,36.989v14.201h-14.989V36.989H187.042z M172.547,65.488h14.002v68.635h-14.002V65.488z"/>
		<path d="M256.368,91.424h-14.891c-0.296-5.621-1.676-9.566-3.944-11.636c-2.269-2.17-5.622-3.254-9.96-3.254
			c-4.635,0-8.283,2.268-11.045,6.706c-2.761,4.438-4.142,10.256-4.142,17.455c0,7.1,1.381,12.82,4.142,17.355
			c2.762,4.438,6.41,6.706,11.045,6.706c4.043,0,7.199-1.085,9.565-3.254c2.367-2.17,3.847-6.114,4.438-11.834h15.088
			c-1.283,8.975-4.536,15.68-9.763,20.117c-5.227,4.438-11.538,6.706-18.934,6.706c-5.128,0-9.566-0.985-13.412-2.958
			c-3.846-1.972-7.001-4.634-9.566-7.988c-2.465-3.354-4.338-7.101-5.621-11.44c-1.282-4.24-1.874-8.677-1.874-13.313
			c0-4.437,0.69-8.776,1.973-13.115c1.282-4.241,3.253-8.086,5.818-11.439c2.662-3.353,5.917-6.015,9.762-8.086
			c3.847-2.07,8.383-3.057,13.51-3.057c3.55,0,7.001,0.592,10.256,1.775c3.255,1.183,6.114,2.86,8.58,5.128
			c2.465,2.268,4.536,4.93,6.114,8.283C255.185,83.535,256.072,87.282,256.368,91.424z"/>
		<path d="M323.523,101.087c0,1.184-0.296,2.072-0.789,2.664c-0.494,0.591-1.282,0.887-2.268,0.887h-44.771
			c0,5.523,1.38,10.256,4.042,14.2c2.663,3.845,7.199,5.819,13.609,5.819c3.649,0,6.804-1.283,9.27-3.749
			c2.564-2.465,4.438-6.311,5.719-11.438h15.087c-2.366,9.466-6.311,16.37-11.833,20.512c-5.424,4.141-12.327,6.311-20.512,6.311
			c-5.227,0-9.762-0.985-13.51-2.958c-3.846-1.973-6.903-4.635-9.467-7.989c-2.564-3.352-4.438-7.099-5.621-11.437
			c-1.183-4.242-1.774-8.679-1.774-13.314c0-4.437,0.591-8.776,1.972-13.115c1.282-4.24,3.254-8.087,5.719-11.439
			c2.564-3.353,5.818-6.016,9.664-8.086c3.846-2.071,8.481-3.057,13.608-3.057c5.424,0,10.256,0.986,14.201,2.859
			c4.042,1.874,7.297,4.438,9.861,7.692c2.564,3.253,4.438,7.1,5.72,11.438C322.932,91.424,323.523,96.157,323.523,101.087z
			 M276.091,93.296h32.739c-0.295-4.831-1.874-8.875-4.536-12.03c-2.663-3.155-6.706-4.635-12.031-4.635
			c-5.128,0-8.974,1.676-11.636,5.128C277.964,85.112,276.485,88.958,276.091,93.296z"/>
	</g>
	<g>
		<path stroke="#000000" stroke-miterlimit="10" d="M39.911,151.676h28.204c4.635,0,8.875,0.592,12.82,1.775
			c3.945,1.182,7.396,2.762,10.256,4.929c2.859,2.269,5.127,4.931,6.804,8.286c1.578,3.252,2.466,7.1,2.466,11.438
			c0,5.128-1.579,9.368-4.635,12.719c-3.057,3.355-6.903,5.721-11.538,7.002c5.227,1.282,8.875,3.747,10.848,7.495
			c2.071,3.747,3.353,8.187,3.945,13.511c0.296,3.844,0.591,7.197,0.789,9.959c0.197,2.759,0.493,5.325,0.69,7.494
			c0.296,2.267,0.789,4.438,1.38,6.312c0.591,1.974,1.479,3.945,2.663,5.916h-16.37c-0.592-1.577-1.085-3.351-1.381-5.126
			c-0.296-1.776-0.493-3.648-0.69-5.523c-0.296-1.872-0.395-3.747-0.493-5.523c-0.098-1.775-0.197-3.549-0.296-5.226
			c-0.493-5.229-0.985-9.271-1.578-12.327c-0.493-2.959-1.282-5.228-2.268-6.805c-1.085-1.578-2.564-2.465-4.536-2.859
			c-1.874-0.396-4.438-0.593-7.791-0.593H50.66v44.082H36.361v-93.289c0-1.281,0.296-2.17,0.789-2.762
			C37.643,151.973,38.531,151.676,39.911,151.676z M85.668,178.006c0-5.227-1.479-8.876-4.536-10.846
			c-2.958-2.073-7.692-3.058-14.2-3.058h-16.37v28.5h15.679c6.114,0,10.946-1.085,14.397-3.255
			C83.991,186.98,85.668,183.33,85.668,178.006z"/>
	</g>
	<g>
		<path d="M170.771,215.479c0,1.184-0.296,2.072-0.789,2.662c-0.494,0.592-1.283,0.889-2.268,0.889h-44.771
			c0,5.523,1.38,10.257,4.043,14.199c2.663,3.847,7.199,5.817,13.608,5.817c3.649,0,6.804-1.28,9.27-3.747
			c2.564-2.461,4.438-6.311,5.719-11.438h15.088c-2.367,9.466-6.312,16.369-11.834,20.513c-5.424,4.141-12.327,6.311-20.512,6.311
			c-5.227,0-9.763-0.985-13.51-2.957c-3.847-1.975-6.903-4.637-9.467-7.987c-2.563-3.356-4.437-7.101-5.621-11.443
			c-1.183-4.24-1.774-8.676-1.774-13.312c0-4.437,0.591-8.776,1.972-13.115c1.281-4.24,3.254-8.087,5.719-11.438
			c2.564-3.355,5.818-6.017,9.664-8.087s8.481-3.058,13.609-3.058c5.423,0,10.256,0.988,14.201,2.862
			c4.042,1.874,7.297,4.437,9.861,7.691s4.438,7.101,5.719,11.438C170.081,205.814,170.771,210.549,170.771,215.479z
			 M123.338,207.688h32.739c-0.295-4.83-1.874-8.872-4.536-12.03c-2.663-3.155-6.706-4.633-12.031-4.633
			c-5.128,0-8.974,1.675-11.636,5.126C125.114,199.504,123.635,203.35,123.338,207.688z"/>
		<path d="M224.417,208.083c0-6.311-0.888-10.749-2.663-13.313c-1.774-2.566-4.832-3.747-9.27-3.747
			c-3.55,0-6.902,1.577-9.763,4.832c-2.958,3.252-4.438,8.283-4.438,15.186v37.67h-13.608v-67.155h13.806v5.917
			c1.775-2.565,4.142-4.536,7.001-5.917c2.859-1.381,6.212-2.07,10.059-2.07c4.438,0,8.284,0.986,11.439,3.055
			c3.156,1.973,5.522,4.832,7.001,8.383c2.17-3.551,5.029-6.41,8.678-8.383c3.649-1.97,7.791-3.055,12.327-3.055
			c7.396,0,12.919,2.267,16.765,6.706c3.846,4.437,5.719,10.749,5.719,18.637v43.883h-13.904v-40.628
			c0-6.41-0.887-10.849-2.564-13.313c-1.676-2.466-4.832-3.747-9.269-3.747c-3.156,0-6.115,1.181-8.875,3.648
			c-2.762,2.465-4.438,6.213-5.03,11.438v42.601h-13.411V208.083L224.417,208.083z"/>
		<path d="M312.774,151.381v14.2h-14.989v-14.2H312.774z M298.278,179.879h14.003v68.537h-14.003V179.879z"/>
		<path d="M342.358,181.556v5.917c1.874-2.565,4.339-4.536,7.298-5.917s6.508-2.07,10.65-2.07c7.593,0,13.412,2.267,17.257,6.706
			c3.945,4.437,5.917,10.749,5.917,18.637v43.883h-14.2v-40.628c0-6.311-0.887-10.749-2.761-13.313
			c-1.874-2.566-5.03-3.747-9.664-3.747c-3.551,0-6.903,1.577-10.059,4.832c-3.156,3.252-4.635,8.283-4.635,15.186v37.67h-13.609
			v-67.155H342.358z"/>
		<path d="M443.931,243.386c-0.692,1.184-2.566,2.662-5.621,4.441c-3.058,1.772-7.3,2.662-12.722,2.662
			c-5.227,0-9.665-0.988-13.412-3.06c-3.747-1.971-6.706-4.634-9.072-7.987c-2.367-3.449-4.142-7.296-5.227-11.635
			c-1.084-4.337-1.677-8.778-1.677-13.412c0-4.438,0.494-8.776,1.579-13.017c1.084-4.24,2.761-7.987,5.127-11.242
			c2.268-3.354,5.325-6.016,9.073-7.987c3.747-1.973,8.184-3.058,13.51-3.058c4.142,0,7.79,0.789,10.945,2.269
			c3.253,1.479,5.623,3.155,7.099,5.029v-35.896h13.511v84.61c0,1.677,0.097,3.747,0.293,6.112c0.2,2.368,0.496,4.735,0.989,7.101
			h-14.104L443.931,243.386z M427.166,190.728c-2.958,0-5.522,0.592-7.593,1.873c-2.071,1.282-3.649,2.859-4.832,4.929
			c-1.282,2.17-2.169,4.636-2.761,7.398c-0.592,2.759-0.79,5.717-0.79,8.875c0,2.958,0.198,5.918,0.69,8.875
			c0.494,2.957,1.282,5.622,2.367,7.987c1.183,2.368,2.761,4.339,4.733,5.719c1.973,1.481,4.438,2.17,7.396,2.17
			c3.254,0,6.016-0.593,8.187-1.875c2.266-1.28,4.041-3.054,5.421-5.325c1.381-2.266,2.366-4.832,2.959-7.987
			c0.592-3.057,0.888-6.41,0.888-10.156c0-6.41-1.282-11.834-3.944-16.174C437.225,192.897,432.984,190.728,427.166,190.728z"/>
		<path d="M530.809,215.479c0,1.184-0.297,2.072-0.789,2.662c-0.493,0.592-1.282,0.889-2.266,0.889h-44.772
			c0,5.523,1.381,10.257,4.043,14.199c2.663,3.847,7.199,5.817,13.608,5.817c3.648,0,6.805-1.28,9.27-3.747
			c2.566-2.461,4.439-6.311,5.72-11.438h15.187c-2.367,9.466-6.311,16.369-11.834,20.513c-5.422,4.141-12.327,6.311-20.511,6.311
			c-5.228,0-9.764-0.985-13.511-2.957c-3.844-1.975-6.903-4.637-9.465-7.987c-2.566-3.356-4.439-7.101-5.621-11.443
			c-1.184-4.24-1.777-8.676-1.777-13.312c0-4.437,0.692-8.776,1.973-13.115c1.282-4.24,3.255-8.087,5.721-11.438
			c2.563-3.355,5.817-6.017,9.664-8.087c3.844-2.07,8.48-3.058,13.608-3.058c5.423,0,10.255,0.988,14.2,2.862
			c4.043,1.874,7.298,4.437,9.861,7.691c2.563,3.255,4.437,7.101,5.72,11.438C530.218,205.814,530.809,210.549,530.809,215.479z
			 M483.375,207.688h32.74c-0.296-4.83-1.874-8.872-4.536-12.03c-2.663-3.155-6.706-4.633-12.031-4.633
			c-5.128,0-8.974,1.675-11.637,5.126C485.249,199.504,483.771,203.35,483.375,207.688z"/>
		<path d="M572.72,192.699c-1.973,0-3.847,0.296-5.621,0.988c-1.774,0.59-3.355,1.674-4.733,3.155
			c-1.381,1.381-2.465,3.254-3.254,5.621c-0.789,2.366-1.185,5.324-1.185,8.678v37.569h-14.003v-67.155h14.2l-0.295,7.199
			c1.579-2.07,3.453-4.14,5.623-6.114c2.266-2.07,5.125-3.058,8.675-3.058c1.085,0,2.367,0.1,3.847,0.296
			c1.479,0.197,2.959,0.493,4.438,0.989v13.704c-1.676-0.789-3.155-1.281-4.438-1.479
			C574.889,192.798,573.805,192.699,572.72,192.699z"/>
		<path d="M606.346,252.163H588.99v-16.272h17.258v16.272H606.346z"/>
	</g>
	<path fill="#FFFFFF" d="M625.971,33.636"/>
	<path d="M788.288,91.029"/>
	<path fill="#1A4876" d="M727.049,25.747c-18.046,0-35.204,3.846-50.687,10.749l60.251,37.769l-64.687,41.221l-10.454-71.002
		C626.268,66.376,602.798,105.426,602.798,150c0,43.194,21.991,81.158,55.42,103.446l25.443-26.231
		c35.304-22.089-7.396-73.566-7.396-73.566c79.382,23.568,97.033-63.211,97.033-63.211c27.908,2.958,42.6,29.388,42.6,29.388
		c-4.436,1.479-10.253-2.96-10.253-2.96c4.438,5.917,5.917,32.346,5.917,32.346c24.95,41.22,7.395,38.261,7.395,38.261
		s-7.395,0-11.734,2.959c-1.28,0.887,7.396,5.917,4.438,10.256c-3.453,5.125-0.691,6.902,0,8.776
		c1.481,4.437-1.972,3.353-1.577,5.621c1.48,7.395,0.099,13.507,0.099,13.507c-5.917,16.173-17.651,14.697-17.651,14.697
		s-13.217-1.481-20.611,0c-4.736,0.985-2.17,13.607,0.294,22.385c46.251-18.048,79.087-63.112,79.087-115.773
		C851.301,81.365,795.684,25.747,727.049,25.747z M669.854,119.43l70.708-44.968c1.675-1.085,3.943-0.591,5.028,1.084
		c1.084,1.677,0.592,3.945-1.085,5.03l-70.706,45.066c-1.677,1.085-3.945,0.592-5.027-1.084
		C667.684,122.782,668.177,120.515,669.854,119.43z M737.996,101.975c0,0-11.44,29.485-39.447,25.442c0,0-2.957-2.958-0.097-5.917
		c0,0,23.568,4.142,33.627-22.386C732.079,99.114,736.418,97.636,737.996,101.975z M663.05,146.351
		c-1.481-2.957,1.479-4.437,1.479-4.437c94.076,30.866,101.475-67.648,101.475-67.648c2.96-2.958,5.917,0,5.917,0
		C755.746,185.993,663.05,146.351,663.05,146.351z"/>
</g>
</svg>
